<?xml version="1.0" encoding="UTF-8" standalone="no"?><svg xmlns="http://www.w3.org/2000/svg" xmlns:xlink="http://www.w3.org/1999/xlink" contentScriptType="application/ecmascript" contentStyleType="text/css" height="219px" preserveAspectRatio="none" style="width:107px;height:219px;" version="1.1" viewBox="0 0 107 219" width="107px" zoomAndPan="magnify"><defs><filter height="300%" id="f1memad6dh5v5x" width="300%" x="-1" y="-1"><feGaussianBlur result="blurOut" stdDeviation="2.0"/><feColorMatrix in="blurOut" result="blurOut2" type="matrix" values="0 0 0 0 0 0 0 0 0 0 0 0 0 0 0 0 0 0 .4 0"/><feOffset dx="4.0" dy="4.0" in="blurOut2" result="blurOut3"/><feBlend in="SourceGraphic" in2="blurOut3" mode="normal"/></filter></defs><g><!--class Person--><rect fill="#FEFECE" filter="url(#f1memad6dh5v5x)" height="200.1953" id="Person" style="stroke: #A80036; stroke-width: 1.5;" width="90" x="6" y="8"/><ellipse cx="29.1" cy="24" fill="#ADD1B2" rx="11" ry="11" style="stroke: #A80036; stroke-width: 1.0;"/><path d="M31.8656,19.875 Q32.0219,19.6563 32.2094,19.5469 Q32.3969,19.4375 32.6156,19.4375 Q32.9906,19.4375 33.225,19.6953 Q33.4594,19.9531 33.4594,20.5625 L33.4594,22.0156 Q33.4594,22.625 33.225,22.8906 Q32.9906,23.1563 32.6156,23.1563 Q32.2719,23.1563 32.0688,22.9531 Q31.8656,22.7656 31.7563,22.25 Q31.7094,21.8906 31.5219,21.7031 Q31.1938,21.3281 30.5844,21.1094 Q29.975,20.8906 29.35,20.8906 Q28.5844,20.8906 27.9516,21.2188 Q27.3188,21.5469 26.8266,22.2969 Q26.3344,23.0469 26.3344,24.0781 L26.3344,25.1719 Q26.3344,26.4063 27.225,27.2266 Q28.1156,28.0469 29.7094,28.0469 Q30.6469,28.0469 31.3031,27.7969 Q31.6938,27.6406 32.1156,27.2031 Q32.3813,26.9375 32.5297,26.8594 Q32.6781,26.7813 32.8813,26.7813 Q33.2094,26.7813 33.4672,27.0391 Q33.725,27.2969 33.725,27.6406 Q33.725,27.9844 33.3813,28.3906 Q32.8813,28.9688 32.0844,29.2969 Q31.0063,29.75 29.7094,29.75 Q28.1938,29.75 26.9906,29.125 Q26.0063,28.625 25.3188,27.5547 Q24.6313,26.4844 24.6313,25.2031 L24.6313,24.0469 Q24.6313,22.7188 25.2484,21.5703 Q25.8656,20.4219 26.9594,19.8047 Q28.0531,19.1875 29.2875,19.1875 Q30.0219,19.1875 30.6703,19.3516 Q31.3188,19.5156 31.8656,19.875 Z "/><text fill="#000000" font-family="sans-serif" font-size="12" lengthAdjust="spacingAndGlyphs" textLength="40" x="44.9" y="28.9102">Person</text><line style="stroke: #A80036; stroke-width: 1.5;" x1="7" x2="95" y1="40" y2="40"/><rect fill="none" height="6" style="stroke: #C82930; stroke-width: 1.0;" width="6" x="14" y="49.418"/><text fill="#000000" font-family="sans-serif" font-size="11" lengthAdjust="spacingAndGlyphs" textLength="26" x="26" y="55.4189">name</text><rect fill="none" height="6" style="stroke: #C82930; stroke-width: 1.0;" width="6" x="14" y="63.2539"/><text fill="#000000" font-family="sans-serif" font-size="11" lengthAdjust="spacingAndGlyphs" textLength="43" x="26" y="69.2549">lastname</text><rect fill="none" height="6" style="stroke: #C82930; stroke-width: 1.0;" width="6" x="14" y="77.0898"/><text fill="#000000" font-family="sans-serif" font-size="11" lengthAdjust="spacingAndGlyphs" textLength="47" x="26" y="83.0908">NationalID</text><rect fill="none" height="6" style="stroke: #C82930; stroke-width: 1.0;" width="6" x="14" y="90.9258"/><text fill="#000000" font-family="sans-serif" font-size="11" lengthAdjust="spacingAndGlyphs" textLength="45" x="26" y="96.9268">birth date</text><rect fill="none" height="6" style="stroke: #C82930; stroke-width: 1.0;" width="6" x="14" y="104.7617"/><text fill="#000000" font-family="sans-serif" font-size="11" lengthAdjust="spacingAndGlyphs" textLength="62" x="26" y="110.7627">favorite food</text><rect fill="none" height="6" style="stroke: #C82930; stroke-width: 1.0;" width="6" x="14" y="118.5977"/><text fill="#000000" font-family="sans-serif" font-size="11" lengthAdjust="spacingAndGlyphs" textLength="64" x="26" y="124.5986">favorite color</text><line style="stroke: #A80036; stroke-width: 1.5;" x1="7" x2="95" y1="131.0156" y2="131.0156"/><ellipse cx="17" cy="143.4336" fill="#84BE84" rx="3" ry="3" style="stroke: #038048; stroke-width: 1.0;"/><text fill="#000000" font-family="sans-serif" font-size="11" lengthAdjust="spacingAndGlyphs" textLength="51" x="26" y="146.4346">TellName()</text><ellipse cx="17" cy="157.2695" fill="#84BE84" rx="3" ry="3" style="stroke: #038048; stroke-width: 1.0;"/><text fill="#000000" font-family="sans-serif" font-size="11" lengthAdjust="spacingAndGlyphs" textLength="44" x="26" y="160.2705">TellAge()</text><ellipse cx="17" cy="171.1055" fill="#84BE84" rx="3" ry="3" style="stroke: #038048; stroke-width: 1.0;"/><text fill="#000000" font-family="sans-serif" font-size="11" lengthAdjust="spacingAndGlyphs" textLength="43" x="26" y="174.1064">Singing()</text><ellipse cx="17" cy="184.9414" fill="#84BE84" rx="3" ry="3" style="stroke: #038048; stroke-width: 1.0;"/><text fill="#000000" font-family="sans-serif" font-size="11" lengthAdjust="spacingAndGlyphs" textLength="41" x="26" y="187.9424">Driving()</text><ellipse cx="17" cy="198.7773" fill="#84BE84" rx="3" ry="3" style="stroke: #038048; stroke-width: 1.0;"/><text fill="#000000" font-family="sans-serif" font-size="11" lengthAdjust="spacingAndGlyphs" textLength="57" x="26" y="201.7783">Swimming()</text><!--
@startuml
 class Person
 {
    - name
    - lastname
    - NationalID
    - birth date
    - favorite food
    - favorite color
    + TellName()
    + TellAge()
    + Singing()
    + Driving()
    + Swimming()
 }
@enduml

PlantUML version 1.2019.06(Sat May 25 00:10:25 ICT 2019)
(GPL source distribution)
Java Runtime: Java(TM) SE Runtime Environment
JVM: Java HotSpot(TM) Client VM
Java Version: 1.8.0_161-b12
Operating System: Windows 10
OS Version: 10.0
Default Encoding: MS874
Language: en
Country: US
--></g></svg>