<?xml version="1.0" encoding="UTF-8" standalone="no"?><svg xmlns="http://www.w3.org/2000/svg" xmlns:xlink="http://www.w3.org/1999/xlink" contentScriptType="application/ecmascript" contentStyleType="text/css" height="175px" preserveAspectRatio="none" style="width:347px;height:175px;" version="1.1" viewBox="0 0 347 175" width="347px" zoomAndPan="magnify"><defs><filter height="300%" id="fyve2qgub9sok" width="300%" x="-1" y="-1"><feGaussianBlur result="blurOut" stdDeviation="2.0"/><feColorMatrix in="blurOut" result="blurOut2" type="matrix" values="0 0 0 0 0 0 0 0 0 0 0 0 0 0 0 0 0 0 .4 0"/><feOffset dx="4.0" dy="4.0" in="blurOut2" result="blurOut3"/><feBlend in="SourceGraphic" in2="blurOut3" mode="normal"/></filter></defs><g><!--class Teacher--><rect fill="#FEFECE" filter="url(#fyve2qgub9sok)" height="48" id="Teacher" style="stroke: #A80036; stroke-width: 1.5;" width="77" x="133.5" y="8"/><ellipse cx="148.5" cy="24" fill="#ADD1B2" rx="11" ry="11" style="stroke: #A80036; stroke-width: 1.0;"/><path d="M151.2656,19.875 Q151.4219,19.6563 151.6094,19.5469 Q151.7969,19.4375 152.0156,19.4375 Q152.3906,19.4375 152.625,19.6953 Q152.8594,19.9531 152.8594,20.5625 L152.8594,22.0156 Q152.8594,22.625 152.625,22.8906 Q152.3906,23.1563 152.0156,23.1563 Q151.6719,23.1563 151.4688,22.9531 Q151.2656,22.7656 151.1563,22.25 Q151.1094,21.8906 150.9219,21.7031 Q150.5938,21.3281 149.9844,21.1094 Q149.375,20.8906 148.75,20.8906 Q147.9844,20.8906 147.3516,21.2188 Q146.7188,21.5469 146.2266,22.2969 Q145.7344,23.0469 145.7344,24.0781 L145.7344,25.1719 Q145.7344,26.4063 146.625,27.2266 Q147.5156,28.0469 149.1094,28.0469 Q150.0469,28.0469 150.7031,27.7969 Q151.0938,27.6406 151.5156,27.2031 Q151.7813,26.9375 151.9297,26.8594 Q152.0781,26.7813 152.2813,26.7813 Q152.6094,26.7813 152.8672,27.0391 Q153.125,27.2969 153.125,27.6406 Q153.125,27.9844 152.7813,28.3906 Q152.2813,28.9688 151.4844,29.2969 Q150.4063,29.75 149.1094,29.75 Q147.5938,29.75 146.3906,29.125 Q145.4063,28.625 144.7188,27.5547 Q144.0313,26.4844 144.0313,25.2031 L144.0313,24.0469 Q144.0313,22.7188 144.6484,21.5703 Q145.2656,20.4219 146.3594,19.8047 Q147.4531,19.1875 148.6875,19.1875 Q149.4219,19.1875 150.0703,19.3516 Q150.7188,19.5156 151.2656,19.875 Z "/><text fill="#000000" font-family="sans-serif" font-size="12" lengthAdjust="spacingAndGlyphs" textLength="45" x="162.5" y="28.9102">Teacher</text><line style="stroke: #A80036; stroke-width: 1.5;" x1="134.5" x2="209.5" y1="40" y2="40"/><line style="stroke: #A80036; stroke-width: 1.5;" x1="134.5" x2="209.5" y1="48" y2="48"/><!--class AssocProf--><rect fill="#FEFECE" filter="url(#fyve2qgub9sok)" height="48" id="AssocProf" style="stroke: #A80036; stroke-width: 1.5;" width="88" x="6" y="116"/><ellipse cx="21" cy="132" fill="#ADD1B2" rx="11" ry="11" style="stroke: #A80036; stroke-width: 1.0;"/><path d="M23.7656,127.875 Q23.9219,127.6563 24.1094,127.5469 Q24.2969,127.4375 24.5156,127.4375 Q24.8906,127.4375 25.125,127.6953 Q25.3594,127.9531 25.3594,128.5625 L25.3594,130.0156 Q25.3594,130.625 25.125,130.8906 Q24.8906,131.1563 24.5156,131.1563 Q24.1719,131.1563 23.9688,130.9531 Q23.7656,130.7656 23.6563,130.25 Q23.6094,129.8906 23.4219,129.7031 Q23.0938,129.3281 22.4844,129.1094 Q21.875,128.8906 21.25,128.8906 Q20.4844,128.8906 19.8516,129.2188 Q19.2188,129.5469 18.7266,130.2969 Q18.2344,131.0469 18.2344,132.0781 L18.2344,133.1719 Q18.2344,134.4063 19.125,135.2266 Q20.0156,136.0469 21.6094,136.0469 Q22.5469,136.0469 23.2031,135.7969 Q23.5938,135.6406 24.0156,135.2031 Q24.2813,134.9375 24.4297,134.8594 Q24.5781,134.7813 24.7813,134.7813 Q25.1094,134.7813 25.3672,135.0391 Q25.625,135.2969 25.625,135.6406 Q25.625,135.9844 25.2813,136.3906 Q24.7813,136.9688 23.9844,137.2969 Q22.9063,137.75 21.6094,137.75 Q20.0938,137.75 18.8906,137.125 Q17.9063,136.625 17.2188,135.5547 Q16.5313,134.4844 16.5313,133.2031 L16.5313,132.0469 Q16.5313,130.7188 17.1484,129.5703 Q17.7656,128.4219 18.8594,127.8047 Q19.9531,127.1875 21.1875,127.1875 Q21.9219,127.1875 22.5703,127.3516 Q23.2188,127.5156 23.7656,127.875 Z "/><text fill="#000000" font-family="sans-serif" font-size="12" lengthAdjust="spacingAndGlyphs" textLength="56" x="35" y="136.9102">AssocProf</text><line style="stroke: #A80036; stroke-width: 1.5;" x1="7" x2="93" y1="148" y2="148"/><line style="stroke: #A80036; stroke-width: 1.5;" x1="7" x2="93" y1="156" y2="156"/><!--class AssisProf--><rect fill="#FEFECE" filter="url(#fyve2qgub9sok)" height="48" id="AssisProf" style="stroke: #A80036; stroke-width: 1.5;" width="85" x="129.5" y="116"/><ellipse cx="144.5" cy="132" fill="#ADD1B2" rx="11" ry="11" style="stroke: #A80036; stroke-width: 1.0;"/><path d="M147.2656,127.875 Q147.4219,127.6563 147.6094,127.5469 Q147.7969,127.4375 148.0156,127.4375 Q148.3906,127.4375 148.625,127.6953 Q148.8594,127.9531 148.8594,128.5625 L148.8594,130.0156 Q148.8594,130.625 148.625,130.8906 Q148.3906,131.1563 148.0156,131.1563 Q147.6719,131.1563 147.4688,130.9531 Q147.2656,130.7656 147.1563,130.25 Q147.1094,129.8906 146.9219,129.7031 Q146.5938,129.3281 145.9844,129.1094 Q145.375,128.8906 144.75,128.8906 Q143.9844,128.8906 143.3516,129.2188 Q142.7188,129.5469 142.2266,130.2969 Q141.7344,131.0469 141.7344,132.0781 L141.7344,133.1719 Q141.7344,134.4063 142.625,135.2266 Q143.5156,136.0469 145.1094,136.0469 Q146.0469,136.0469 146.7031,135.7969 Q147.0938,135.6406 147.5156,135.2031 Q147.7813,134.9375 147.9297,134.8594 Q148.0781,134.7813 148.2813,134.7813 Q148.6094,134.7813 148.8672,135.0391 Q149.125,135.2969 149.125,135.6406 Q149.125,135.9844 148.7813,136.3906 Q148.2813,136.9688 147.4844,137.2969 Q146.4063,137.75 145.1094,137.75 Q143.5938,137.75 142.3906,137.125 Q141.4063,136.625 140.7188,135.5547 Q140.0313,134.4844 140.0313,133.2031 L140.0313,132.0469 Q140.0313,130.7188 140.6484,129.5703 Q141.2656,128.4219 142.3594,127.8047 Q143.4531,127.1875 144.6875,127.1875 Q145.4219,127.1875 146.0703,127.3516 Q146.7188,127.5156 147.2656,127.875 Z "/><text fill="#000000" font-family="sans-serif" font-size="12" lengthAdjust="spacingAndGlyphs" textLength="53" x="158.5" y="136.9102">AssisProf</text><line style="stroke: #A80036; stroke-width: 1.5;" x1="130.5" x2="213.5" y1="148" y2="148"/><line style="stroke: #A80036; stroke-width: 1.5;" x1="130.5" x2="213.5" y1="156" y2="156"/><!--class Professor--><rect fill="#FEFECE" filter="url(#fyve2qgub9sok)" height="48" id="Professor" style="stroke: #A80036; stroke-width: 1.5;" width="86" x="250" y="116"/><ellipse cx="265" cy="132" fill="#ADD1B2" rx="11" ry="11" style="stroke: #A80036; stroke-width: 1.0;"/><path d="M267.7656,127.875 Q267.9219,127.6563 268.1094,127.5469 Q268.2969,127.4375 268.5156,127.4375 Q268.8906,127.4375 269.125,127.6953 Q269.3594,127.9531 269.3594,128.5625 L269.3594,130.0156 Q269.3594,130.625 269.125,130.8906 Q268.8906,131.1563 268.5156,131.1563 Q268.1719,131.1563 267.9688,130.9531 Q267.7656,130.7656 267.6563,130.25 Q267.6094,129.8906 267.4219,129.7031 Q267.0938,129.3281 266.4844,129.1094 Q265.875,128.8906 265.25,128.8906 Q264.4844,128.8906 263.8516,129.2188 Q263.2188,129.5469 262.7266,130.2969 Q262.2344,131.0469 262.2344,132.0781 L262.2344,133.1719 Q262.2344,134.4063 263.125,135.2266 Q264.0156,136.0469 265.6094,136.0469 Q266.5469,136.0469 267.2031,135.7969 Q267.5938,135.6406 268.0156,135.2031 Q268.2813,134.9375 268.4297,134.8594 Q268.5781,134.7813 268.7813,134.7813 Q269.1094,134.7813 269.3672,135.0391 Q269.625,135.2969 269.625,135.6406 Q269.625,135.9844 269.2813,136.3906 Q268.7813,136.9688 267.9844,137.2969 Q266.9063,137.75 265.6094,137.75 Q264.0938,137.75 262.8906,137.125 Q261.9063,136.625 261.2188,135.5547 Q260.5313,134.4844 260.5313,133.2031 L260.5313,132.0469 Q260.5313,130.7188 261.1484,129.5703 Q261.7656,128.4219 262.8594,127.8047 Q263.9531,127.1875 265.1875,127.1875 Q265.9219,127.1875 266.5703,127.3516 Q267.2188,127.5156 267.7656,127.875 Z "/><text fill="#000000" font-family="sans-serif" font-size="12" lengthAdjust="spacingAndGlyphs" textLength="54" x="279" y="136.9102">Professor</text><line style="stroke: #A80036; stroke-width: 1.5;" x1="251" x2="335" y1="148" y2="148"/><line style="stroke: #A80036; stroke-width: 1.5;" x1="251" x2="335" y1="156" y2="156"/><!--link Teacher to AssocProf--><path d="M130.177,69.3383 C112.518,84.6813 92.4721,102.098 76.8418,115.6784 " fill="none" id="Teacher-AssocProf" style="stroke: #A80036; stroke-width: 1.0;"/><polygon fill="none" points="125.839,63.834,145.528,56,135.021,74.402,125.839,63.834" style="stroke: #A80036; stroke-width: 1.0;"/><!--link Teacher to AssisProf--><path d="M172,76.0236 C172,89.5792 172,104.0381 172,115.6784 " fill="none" id="Teacher-AssisProf" style="stroke: #A80036; stroke-width: 1.0;"/><polygon fill="none" points="165,76.0005,172,56,179,76.0004,165,76.0005" style="stroke: #A80036; stroke-width: 1.0;"/><!--link Teacher to Professor--><path d="M213.481,69.3383 C230.995,84.6813 250.876,102.098 266.378,115.6784 " fill="none" id="Teacher-Professor" style="stroke: #A80036; stroke-width: 1.0;"/><polygon fill="none" points="208.686,74.4447,198.255,56,217.912,63.914,208.686,74.4447" style="stroke: #A80036; stroke-width: 1.0;"/><!--
@startuml
 class Teacher
 class AssocProf
 class AssisProf
 class Professor
 Teacher <|- - AssocProf
 Teacher <|- - AssisProf
 Teacher <|- - Professor
 
@enduml

PlantUML version 1.2019.06(Sat May 25 00:10:25 ICT 2019)
(GPL source distribution)
Java Runtime: Java(TM) SE Runtime Environment
JVM: Java HotSpot(TM) Client VM
Java Version: 1.8.0_161-b12
Operating System: Windows 10
OS Version: 10.0
Default Encoding: MS874
Language: en
Country: US
--></g></svg>