<?xml version="1.0" encoding="UTF-8" standalone="no"?><svg xmlns="http://www.w3.org/2000/svg" xmlns:xlink="http://www.w3.org/1999/xlink" contentScriptType="application/ecmascript" contentStyleType="text/css" height="324px" preserveAspectRatio="none" style="width:286px;height:324px;" version="1.1" viewBox="0 0 286 324" width="286px" zoomAndPan="magnify"><defs><filter height="300%" id="fnjwfwrqidvf0" width="300%" x="-1" y="-1"><feGaussianBlur result="blurOut" stdDeviation="2.0"/><feColorMatrix in="blurOut" result="blurOut2" type="matrix" values="0 0 0 0 0 0 0 0 0 0 0 0 0 0 0 0 0 0 .4 0"/><feOffset dx="4.0" dy="4.0" in="blurOut2" result="blurOut3"/><feBlend in="SourceGraphic" in2="blurOut3" mode="normal"/></filter></defs><g><!--class Person--><rect fill="#FEFECE" filter="url(#fnjwfwrqidvf0)" height="61.8359" id="Person" style="stroke: #A80036; stroke-width: 1.5;" width="106" x="87.5" y="8"/><ellipse cx="117.8" cy="24" fill="#ADD1B2" rx="11" ry="11" style="stroke: #A80036; stroke-width: 1.0;"/><path d="M120.5656,19.875 Q120.7219,19.6563 120.9094,19.5469 Q121.0969,19.4375 121.3156,19.4375 Q121.6906,19.4375 121.925,19.6953 Q122.1594,19.9531 122.1594,20.5625 L122.1594,22.0156 Q122.1594,22.625 121.925,22.8906 Q121.6906,23.1563 121.3156,23.1563 Q120.9719,23.1563 120.7688,22.9531 Q120.5656,22.7656 120.4563,22.25 Q120.4094,21.8906 120.2219,21.7031 Q119.8938,21.3281 119.2844,21.1094 Q118.675,20.8906 118.05,20.8906 Q117.2844,20.8906 116.6516,21.2188 Q116.0188,21.5469 115.5266,22.2969 Q115.0344,23.0469 115.0344,24.0781 L115.0344,25.1719 Q115.0344,26.4063 115.925,27.2266 Q116.8156,28.0469 118.4094,28.0469 Q119.3469,28.0469 120.0031,27.7969 Q120.3938,27.6406 120.8156,27.2031 Q121.0813,26.9375 121.2297,26.8594 Q121.3781,26.7813 121.5813,26.7813 Q121.9094,26.7813 122.1672,27.0391 Q122.425,27.2969 122.425,27.6406 Q122.425,27.9844 122.0813,28.3906 Q121.5813,28.9688 120.7844,29.2969 Q119.7063,29.75 118.4094,29.75 Q116.8938,29.75 115.6906,29.125 Q114.7063,28.625 114.0188,27.5547 Q113.3313,26.4844 113.3313,25.2031 L113.3313,24.0469 Q113.3313,22.7188 113.9484,21.5703 Q114.5656,20.4219 115.6594,19.8047 Q116.7531,19.1875 117.9875,19.1875 Q118.7219,19.1875 119.3703,19.3516 Q120.0188,19.5156 120.5656,19.875 Z "/><text fill="#000000" font-family="sans-serif" font-size="12" lengthAdjust="spacingAndGlyphs" textLength="40" x="135.2" y="28.9102">Person</text><line style="stroke: #A80036; stroke-width: 1.5;" x1="88.5" x2="192.5" y1="40" y2="40"/><line style="stroke: #A80036; stroke-width: 1.5;" x1="88.5" x2="192.5" y1="48" y2="48"/><ellipse cx="98.5" cy="60.418" fill="#84BE84" rx="3" ry="3" style="stroke: #038048; stroke-width: 1.0;"/><text fill="#000000" font-family="sans-serif" font-size="11" lengthAdjust="spacingAndGlyphs" textLength="80" x="107.5" y="63.4189">«virtual» SayHi()</text><!--class Student--><rect fill="#FEFECE" filter="url(#fnjwfwrqidvf0)" height="61.8359" id="Student" style="stroke: #A80036; stroke-width: 1.5;" width="117" x="6" y="130"/><ellipse cx="40.35" cy="146" fill="#ADD1B2" rx="11" ry="11" style="stroke: #A80036; stroke-width: 1.0;"/><path d="M43.1156,141.875 Q43.2719,141.6563 43.4594,141.5469 Q43.6469,141.4375 43.8656,141.4375 Q44.2406,141.4375 44.475,141.6953 Q44.7094,141.9531 44.7094,142.5625 L44.7094,144.0156 Q44.7094,144.625 44.475,144.8906 Q44.2406,145.1563 43.8656,145.1563 Q43.5219,145.1563 43.3188,144.9531 Q43.1156,144.7656 43.0063,144.25 Q42.9594,143.8906 42.7719,143.7031 Q42.4438,143.3281 41.8344,143.1094 Q41.225,142.8906 40.6,142.8906 Q39.8344,142.8906 39.2016,143.2188 Q38.5688,143.5469 38.0766,144.2969 Q37.5844,145.0469 37.5844,146.0781 L37.5844,147.1719 Q37.5844,148.4063 38.475,149.2266 Q39.3656,150.0469 40.9594,150.0469 Q41.8969,150.0469 42.5531,149.7969 Q42.9438,149.6406 43.3656,149.2031 Q43.6313,148.9375 43.7797,148.8594 Q43.9281,148.7813 44.1313,148.7813 Q44.4594,148.7813 44.7172,149.0391 Q44.975,149.2969 44.975,149.6406 Q44.975,149.9844 44.6313,150.3906 Q44.1313,150.9688 43.3344,151.2969 Q42.2563,151.75 40.9594,151.75 Q39.4438,151.75 38.2406,151.125 Q37.2563,150.625 36.5688,149.5547 Q35.8813,148.4844 35.8813,147.2031 L35.8813,146.0469 Q35.8813,144.7188 36.4984,143.5703 Q37.1156,142.4219 38.2094,141.8047 Q39.3031,141.1875 40.5375,141.1875 Q41.2719,141.1875 41.9203,141.3516 Q42.5688,141.5156 43.1156,141.875 Z "/><text fill="#000000" font-family="sans-serif" font-size="12" lengthAdjust="spacingAndGlyphs" textLength="42" x="58.65" y="150.9102">Student</text><line style="stroke: #A80036; stroke-width: 1.5;" x1="7" x2="122" y1="162" y2="162"/><line style="stroke: #A80036; stroke-width: 1.5;" x1="7" x2="122" y1="170" y2="170"/><ellipse cx="17" cy="182.418" fill="#84BE84" rx="3" ry="3" style="stroke: #038048; stroke-width: 1.0;"/><text fill="#000000" font-family="sans-serif" font-size="11" lengthAdjust="spacingAndGlyphs" textLength="91" x="26" y="185.4189">«override» SayHi()</text><!--class Teacher--><rect fill="#FEFECE" filter="url(#fnjwfwrqidvf0)" height="61.8359" id="Teacher" style="stroke: #A80036; stroke-width: 1.5;" width="117" x="158" y="130"/><ellipse cx="191" cy="146" fill="#ADD1B2" rx="11" ry="11" style="stroke: #A80036; stroke-width: 1.0;"/><path d="M193.7656,141.875 Q193.9219,141.6563 194.1094,141.5469 Q194.2969,141.4375 194.5156,141.4375 Q194.8906,141.4375 195.125,141.6953 Q195.3594,141.9531 195.3594,142.5625 L195.3594,144.0156 Q195.3594,144.625 195.125,144.8906 Q194.8906,145.1563 194.5156,145.1563 Q194.1719,145.1563 193.9688,144.9531 Q193.7656,144.7656 193.6563,144.25 Q193.6094,143.8906 193.4219,143.7031 Q193.0938,143.3281 192.4844,143.1094 Q191.875,142.8906 191.25,142.8906 Q190.4844,142.8906 189.8516,143.2188 Q189.2188,143.5469 188.7266,144.2969 Q188.2344,145.0469 188.2344,146.0781 L188.2344,147.1719 Q188.2344,148.4063 189.125,149.2266 Q190.0156,150.0469 191.6094,150.0469 Q192.5469,150.0469 193.2031,149.7969 Q193.5938,149.6406 194.0156,149.2031 Q194.2813,148.9375 194.4297,148.8594 Q194.5781,148.7813 194.7813,148.7813 Q195.1094,148.7813 195.3672,149.0391 Q195.625,149.2969 195.625,149.6406 Q195.625,149.9844 195.2813,150.3906 Q194.7813,150.9688 193.9844,151.2969 Q192.9063,151.75 191.6094,151.75 Q190.0938,151.75 188.8906,151.125 Q187.9063,150.625 187.2188,149.5547 Q186.5313,148.4844 186.5313,147.2031 L186.5313,146.0469 Q186.5313,144.7188 187.1484,143.5703 Q187.7656,142.4219 188.8594,141.8047 Q189.9531,141.1875 191.1875,141.1875 Q191.9219,141.1875 192.5703,141.3516 Q193.2188,141.5156 193.7656,141.875 Z "/><text fill="#000000" font-family="sans-serif" font-size="12" lengthAdjust="spacingAndGlyphs" textLength="45" x="209" y="150.9102">Teacher</text><line style="stroke: #A80036; stroke-width: 1.5;" x1="159" x2="274" y1="162" y2="162"/><line style="stroke: #A80036; stroke-width: 1.5;" x1="159" x2="274" y1="170" y2="170"/><ellipse cx="169" cy="182.418" fill="#84BE84" rx="3" ry="3" style="stroke: #038048; stroke-width: 1.0;"/><text fill="#000000" font-family="sans-serif" font-size="11" lengthAdjust="spacingAndGlyphs" textLength="91" x="178" y="185.4189">«override» SayHi()</text><!--class Professor--><rect fill="#FEFECE" filter="url(#fnjwfwrqidvf0)" height="61.8359" id="Professor" style="stroke: #A80036; stroke-width: 1.5;" width="99" x="167" y="252"/><ellipse cx="187.85" cy="268" fill="#ADD1B2" rx="11" ry="11" style="stroke: #A80036; stroke-width: 1.0;"/><path d="M190.6156,263.875 Q190.7719,263.6563 190.9594,263.5469 Q191.1469,263.4375 191.3656,263.4375 Q191.7406,263.4375 191.975,263.6953 Q192.2094,263.9531 192.2094,264.5625 L192.2094,266.0156 Q192.2094,266.625 191.975,266.8906 Q191.7406,267.1563 191.3656,267.1563 Q191.0219,267.1563 190.8188,266.9531 Q190.6156,266.7656 190.5063,266.25 Q190.4594,265.8906 190.2719,265.7031 Q189.9438,265.3281 189.3344,265.1094 Q188.725,264.8906 188.1,264.8906 Q187.3344,264.8906 186.7016,265.2188 Q186.0688,265.5469 185.5766,266.2969 Q185.0844,267.0469 185.0844,268.0781 L185.0844,269.1719 Q185.0844,270.4063 185.975,271.2266 Q186.8656,272.0469 188.4594,272.0469 Q189.3969,272.0469 190.0531,271.7969 Q190.4438,271.6406 190.8656,271.2031 Q191.1313,270.9375 191.2797,270.8594 Q191.4281,270.7813 191.6313,270.7813 Q191.9594,270.7813 192.2172,271.0391 Q192.475,271.2969 192.475,271.6406 Q192.475,271.9844 192.1313,272.3906 Q191.6313,272.9688 190.8344,273.2969 Q189.7563,273.75 188.4594,273.75 Q186.9438,273.75 185.7406,273.125 Q184.7563,272.625 184.0688,271.5547 Q183.3813,270.4844 183.3813,269.2031 L183.3813,268.0469 Q183.3813,266.7188 183.9984,265.5703 Q184.6156,264.4219 185.7094,263.8047 Q186.8031,263.1875 188.0375,263.1875 Q188.7719,263.1875 189.4203,263.3516 Q190.0688,263.5156 190.6156,263.875 Z "/><text fill="#000000" font-family="sans-serif" font-size="12" lengthAdjust="spacingAndGlyphs" textLength="54" x="203.15" y="272.9102">Professor</text><line style="stroke: #A80036; stroke-width: 1.5;" x1="168" x2="265" y1="284" y2="284"/><line style="stroke: #A80036; stroke-width: 1.5;" x1="168" x2="265" y1="292" y2="292"/><ellipse cx="178" cy="304.418" fill="#84BE84" rx="3" ry="3" style="stroke: #038048; stroke-width: 1.0;"/><text fill="#000000" font-family="sans-serif" font-size="11" lengthAdjust="spacingAndGlyphs" textLength="73" x="187" y="307.4189">«new» SayHi()</text><!--link Person to Student--><path d="M110.406,87.517 C101.399,101.738 91.7718,116.939 83.6719,129.729 " fill="none" id="Person-Student" style="stroke: #A80036; stroke-width: 1.0;"/><polygon fill="none" points="104.7072,83.432,121.322,70.281,116.535,90.923,104.7072,83.432" style="stroke: #A80036; stroke-width: 1.0;"/><!--link Person to Teacher--><path d="M170.594,87.517 C179.601,101.738 189.228,116.939 197.328,129.729 " fill="none" id="Person-Teacher" style="stroke: #A80036; stroke-width: 1.0;"/><polygon fill="none" points="164.465,90.923,159.678,70.281,176.293,83.432,164.465,90.923" style="stroke: #A80036; stroke-width: 1.0;"/><!--link Teacher to Professor--><path d="M216.5,212.373 C216.5,225.7544 216.5,239.7919 216.5,251.7286 " fill="none" id="Teacher-Professor" style="stroke: #A80036; stroke-width: 1.0;"/><polygon fill="none" points="209.5,212.281,216.5,192.281,223.5,212.281,209.5,212.281" style="stroke: #A80036; stroke-width: 1.0;"/><!--
@startuml
class Person
{
    + <<virtual>> SayHi()   
}
 class Student
{    
    + <<override>> SayHi()   
}
class Teacher
{
    + <<override>> SayHi()   
} 
class Professor
{
    + <<new>> SayHi()   
} 


Person  <|- - Student
Person  <|- - Teacher
Teacher <|- - Professor

@enduml

PlantUML version 1.2019.06(Sat May 25 00:10:25 ICT 2019)
(GPL source distribution)
Java Runtime: Java(TM) SE Runtime Environment
JVM: Java HotSpot(TM) Client VM
Java Version: 1.8.0_161-b12
Operating System: Windows 10
OS Version: 10.0
Default Encoding: MS874
Language: en
Country: US
--></g></svg>