<?xml version="1.0" encoding="UTF-8" standalone="no"?><svg xmlns="http://www.w3.org/2000/svg" xmlns:xlink="http://www.w3.org/1999/xlink" contentScriptType="application/ecmascript" contentStyleType="text/css" height="202px" preserveAspectRatio="none" style="width:268px;height:202px;" version="1.1" viewBox="0 0 268 202" width="268px" zoomAndPan="magnify"><defs><filter height="300%" id="ftt1t731874c8" width="300%" x="-1" y="-1"><feGaussianBlur result="blurOut" stdDeviation="2.0"/><feColorMatrix in="blurOut" result="blurOut2" type="matrix" values="0 0 0 0 0 0 0 0 0 0 0 0 0 0 0 0 0 0 .4 0"/><feOffset dx="4.0" dy="4.0" in="blurOut2" result="blurOut3"/><feBlend in="SourceGraphic" in2="blurOut3" mode="normal"/></filter></defs><g><!--class Person--><rect fill="#FEFECE" filter="url(#ftt1t731874c8)" height="61.8359" id="Person" style="stroke: #A80036; stroke-width: 1.5;" width="106" x="82.5" y="8"/><ellipse cx="112.8" cy="24" fill="#ADD1B2" rx="11" ry="11" style="stroke: #A80036; stroke-width: 1.0;"/><path d="M115.5656,19.875 Q115.7219,19.6563 115.9094,19.5469 Q116.0969,19.4375 116.3156,19.4375 Q116.6906,19.4375 116.925,19.6953 Q117.1594,19.9531 117.1594,20.5625 L117.1594,22.0156 Q117.1594,22.625 116.925,22.8906 Q116.6906,23.1563 116.3156,23.1563 Q115.9719,23.1563 115.7688,22.9531 Q115.5656,22.7656 115.4563,22.25 Q115.4094,21.8906 115.2219,21.7031 Q114.8938,21.3281 114.2844,21.1094 Q113.675,20.8906 113.05,20.8906 Q112.2844,20.8906 111.6516,21.2188 Q111.0188,21.5469 110.5266,22.2969 Q110.0344,23.0469 110.0344,24.0781 L110.0344,25.1719 Q110.0344,26.4063 110.925,27.2266 Q111.8156,28.0469 113.4094,28.0469 Q114.3469,28.0469 115.0031,27.7969 Q115.3938,27.6406 115.8156,27.2031 Q116.0813,26.9375 116.2297,26.8594 Q116.3781,26.7813 116.5813,26.7813 Q116.9094,26.7813 117.1672,27.0391 Q117.425,27.2969 117.425,27.6406 Q117.425,27.9844 117.0813,28.3906 Q116.5813,28.9688 115.7844,29.2969 Q114.7063,29.75 113.4094,29.75 Q111.8938,29.75 110.6906,29.125 Q109.7063,28.625 109.0188,27.5547 Q108.3313,26.4844 108.3313,25.2031 L108.3313,24.0469 Q108.3313,22.7188 108.9484,21.5703 Q109.5656,20.4219 110.6594,19.8047 Q111.7531,19.1875 112.9875,19.1875 Q113.7219,19.1875 114.3703,19.3516 Q115.0188,19.5156 115.5656,19.875 Z "/><text fill="#000000" font-family="sans-serif" font-size="12" lengthAdjust="spacingAndGlyphs" textLength="40" x="130.2" y="28.9102">Person</text><line style="stroke: #A80036; stroke-width: 1.5;" x1="83.5" x2="187.5" y1="40" y2="40"/><line style="stroke: #A80036; stroke-width: 1.5;" x1="83.5" x2="187.5" y1="48" y2="48"/><ellipse cx="93.5" cy="60.418" fill="#84BE84" rx="3" ry="3" style="stroke: #038048; stroke-width: 1.0;"/><text fill="#000000" font-family="sans-serif" font-size="11" lengthAdjust="spacingAndGlyphs" textLength="80" x="102.5" y="63.4189">«virtual» SayHi()</text><!--class Student--><rect fill="#FEFECE" filter="url(#ftt1t731874c8)" height="61.8359" id="Student" style="stroke: #A80036; stroke-width: 1.5;" width="117" x="6" y="130"/><ellipse cx="40.35" cy="146" fill="#ADD1B2" rx="11" ry="11" style="stroke: #A80036; stroke-width: 1.0;"/><path d="M43.1156,141.875 Q43.2719,141.6563 43.4594,141.5469 Q43.6469,141.4375 43.8656,141.4375 Q44.2406,141.4375 44.475,141.6953 Q44.7094,141.9531 44.7094,142.5625 L44.7094,144.0156 Q44.7094,144.625 44.475,144.8906 Q44.2406,145.1563 43.8656,145.1563 Q43.5219,145.1563 43.3188,144.9531 Q43.1156,144.7656 43.0063,144.25 Q42.9594,143.8906 42.7719,143.7031 Q42.4438,143.3281 41.8344,143.1094 Q41.225,142.8906 40.6,142.8906 Q39.8344,142.8906 39.2016,143.2188 Q38.5688,143.5469 38.0766,144.2969 Q37.5844,145.0469 37.5844,146.0781 L37.5844,147.1719 Q37.5844,148.4063 38.475,149.2266 Q39.3656,150.0469 40.9594,150.0469 Q41.8969,150.0469 42.5531,149.7969 Q42.9438,149.6406 43.3656,149.2031 Q43.6313,148.9375 43.7797,148.8594 Q43.9281,148.7813 44.1313,148.7813 Q44.4594,148.7813 44.7172,149.0391 Q44.975,149.2969 44.975,149.6406 Q44.975,149.9844 44.6313,150.3906 Q44.1313,150.9688 43.3344,151.2969 Q42.2563,151.75 40.9594,151.75 Q39.4438,151.75 38.2406,151.125 Q37.2563,150.625 36.5688,149.5547 Q35.8813,148.4844 35.8813,147.2031 L35.8813,146.0469 Q35.8813,144.7188 36.4984,143.5703 Q37.1156,142.4219 38.2094,141.8047 Q39.3031,141.1875 40.5375,141.1875 Q41.2719,141.1875 41.9203,141.3516 Q42.5688,141.5156 43.1156,141.875 Z "/><text fill="#000000" font-family="sans-serif" font-size="12" lengthAdjust="spacingAndGlyphs" textLength="42" x="58.65" y="150.9102">Student</text><line style="stroke: #A80036; stroke-width: 1.5;" x1="7" x2="122" y1="162" y2="162"/><line style="stroke: #A80036; stroke-width: 1.5;" x1="7" x2="122" y1="170" y2="170"/><ellipse cx="17" cy="182.418" fill="#84BE84" rx="3" ry="3" style="stroke: #038048; stroke-width: 1.0;"/><text fill="#000000" font-family="sans-serif" font-size="11" lengthAdjust="spacingAndGlyphs" textLength="91" x="26" y="185.4189">«override» SayHi()</text><!--class Teacher--><rect fill="#FEFECE" filter="url(#ftt1t731874c8)" height="61.8359" id="Teacher" style="stroke: #A80036; stroke-width: 1.5;" width="99" x="158" y="130"/><ellipse cx="182.9" cy="146" fill="#ADD1B2" rx="11" ry="11" style="stroke: #A80036; stroke-width: 1.0;"/><path d="M185.6656,141.875 Q185.8219,141.6563 186.0094,141.5469 Q186.1969,141.4375 186.4156,141.4375 Q186.7906,141.4375 187.025,141.6953 Q187.2594,141.9531 187.2594,142.5625 L187.2594,144.0156 Q187.2594,144.625 187.025,144.8906 Q186.7906,145.1563 186.4156,145.1563 Q186.0719,145.1563 185.8688,144.9531 Q185.6656,144.7656 185.5563,144.25 Q185.5094,143.8906 185.3219,143.7031 Q184.9938,143.3281 184.3844,143.1094 Q183.775,142.8906 183.15,142.8906 Q182.3844,142.8906 181.7516,143.2188 Q181.1188,143.5469 180.6266,144.2969 Q180.1344,145.0469 180.1344,146.0781 L180.1344,147.1719 Q180.1344,148.4063 181.025,149.2266 Q181.9156,150.0469 183.5094,150.0469 Q184.4469,150.0469 185.1031,149.7969 Q185.4938,149.6406 185.9156,149.2031 Q186.1813,148.9375 186.3297,148.8594 Q186.4781,148.7813 186.6813,148.7813 Q187.0094,148.7813 187.2672,149.0391 Q187.525,149.2969 187.525,149.6406 Q187.525,149.9844 187.1813,150.3906 Q186.6813,150.9688 185.8844,151.2969 Q184.8063,151.75 183.5094,151.75 Q181.9938,151.75 180.7906,151.125 Q179.8063,150.625 179.1188,149.5547 Q178.4313,148.4844 178.4313,147.2031 L178.4313,146.0469 Q178.4313,144.7188 179.0484,143.5703 Q179.6656,142.4219 180.7594,141.8047 Q181.8531,141.1875 183.0875,141.1875 Q183.8219,141.1875 184.4703,141.3516 Q185.1188,141.5156 185.6656,141.875 Z "/><text fill="#000000" font-family="sans-serif" font-size="12" lengthAdjust="spacingAndGlyphs" textLength="45" x="199.1" y="150.9102">Teacher</text><line style="stroke: #A80036; stroke-width: 1.5;" x1="159" x2="256" y1="162" y2="162"/><line style="stroke: #A80036; stroke-width: 1.5;" x1="159" x2="256" y1="170" y2="170"/><ellipse cx="169" cy="182.418" fill="#84BE84" rx="3" ry="3" style="stroke: #038048; stroke-width: 1.0;"/><text fill="#000000" font-family="sans-serif" font-size="11" lengthAdjust="spacingAndGlyphs" textLength="73" x="178" y="185.4189">«new» SayHi()</text><!--link Person to Student--><path d="M107.386,87.517 C98.9715,101.7384 89.9776,116.9392 82.4106,129.7286 " fill="none" id="Person-Student" style="stroke: #A80036; stroke-width: 1.0;"/><polygon fill="none" points="101.3749,83.929,117.584,70.281,113.424,91.058,101.3749,83.929" style="stroke: #A80036; stroke-width: 1.0;"/><!--link Person to Teacher--><path d="M164.01,87.517 C172.543,101.7384 181.664,116.9392 189.337,129.7286 " fill="none" id="Person-Teacher" style="stroke: #A80036; stroke-width: 1.0;"/><polygon fill="none" points="157.956,91.032,153.669,70.281,169.961,83.829,157.956,91.032" style="stroke: #A80036; stroke-width: 1.0;"/><!--
@startuml
class Person
{
    + <<virtual>> SayHi()   
}
 class Student
{    
    + <<override>> SayHi()   
}
class Teacher
{
    + <<new>> SayHi()   
} 

Person <|- - Student
Person <|- - Teacher

@enduml

PlantUML version 1.2019.06(Sat May 25 00:10:25 ICT 2019)
(GPL source distribution)
Java Runtime: Java(TM) SE Runtime Environment
JVM: Java HotSpot(TM) Client VM
Java Version: 1.8.0_161-b12
Operating System: Windows 10
OS Version: 10.0
Default Encoding: MS874
Language: en
Country: US
--></g></svg>